<?xml version="1.0" encoding="UTF-8" standalone="no"?>
<svg
   xmlns:ns1="http://www.iki.fi/pav/software/textext/"
   xmlns:dc="http://purl.org/dc/elements/1.1/"
   xmlns:cc="http://creativecommons.org/ns#"
   xmlns:rdf="http://www.w3.org/1999/02/22-rdf-syntax-ns#"
   xmlns:svg="http://www.w3.org/2000/svg"
   xmlns="http://www.w3.org/2000/svg"
   xmlns:sodipodi="http://sodipodi.sourceforge.net/DTD/sodipodi-0.dtd"
   xmlns:inkscape="http://www.inkscape.org/namespaces/inkscape"
   width="210mm"
   height="297mm"
   viewBox="0 0 210 297"
   version="1.1"
   id="svg8"
   sodipodi:docname="坐标系变换.svg"
   inkscape:version="1.0.2 (e86c870879, 2021-01-15)">
  <defs
     id="defs2">
    <rect
       x="83.973976"
       y="70.406991"
       width="28.624803"
       height="24.865795"
       id="rect1390" />
    <rect
       x="87.540038"
       y="73.211051"
       width="22.526435"
       height="18.165509"
       id="rect1384" />
    <marker
       style="overflow:visible;"
       id="marker1194"
       refX="0.0"
       refY="0.0"
       orient="auto"
       inkscape:stockid="Arrow1Lend"
       inkscape:isstock="true">
      <path
         transform="scale(0.8) rotate(180) translate(12.5,0)"
         style="fill-rule:evenodd;stroke:#000000;stroke-width:1pt;stroke-opacity:1;fill:#000000;fill-opacity:1"
         d="M 0.0,0.0 L 5.0,-5.0 L -12.5,0.0 L 5.0,5.0 L 0.0,0.0 z "
         id="path1192" />
    </marker>
    <marker
       style="overflow:visible"
       id="marker1184"
       refX="0.0"
       refY="0.0"
       orient="auto"
       inkscape:stockid="Arrow1Lstart"
       inkscape:isstock="true">
      <path
         transform="scale(0.8) translate(12.5,0)"
         style="fill-rule:evenodd;stroke:#000000;stroke-width:1pt;stroke-opacity:1;fill:#000000;fill-opacity:1"
         d="M 0.0,0.0 L 5.0,-5.0 L -12.5,0.0 L 5.0,5.0 L 0.0,0.0 z "
         id="path1182" />
    </marker>
    <marker
       style="overflow:visible;"
       id="Arrow1Lend"
       refX="0.0"
       refY="0.0"
       orient="auto"
       inkscape:stockid="Arrow1Lend"
       inkscape:isstock="true"
       inkscape:collect="always">
      <path
         transform="scale(0.8) rotate(180) translate(12.5,0)"
         style="fill-rule:evenodd;stroke:#000000;stroke-width:1pt;stroke-opacity:1;fill:#000000;fill-opacity:1"
         d="M 0.0,0.0 L 5.0,-5.0 L -12.5,0.0 L 5.0,5.0 L 0.0,0.0 z "
         id="path840" />
    </marker>
    <marker
       style="overflow:visible"
       id="Arrow1Lstart"
       refX="0.0"
       refY="0.0"
       orient="auto"
       inkscape:stockid="Arrow1Lstart"
       inkscape:isstock="true"
       inkscape:collect="always">
      <path
         transform="scale(0.8) translate(12.5,0)"
         style="fill-rule:evenodd;stroke:#000000;stroke-width:1pt;stroke-opacity:1;fill:#000000;fill-opacity:1"
         d="M 0.0,0.0 L 5.0,-5.0 L -12.5,0.0 L 5.0,5.0 L 0.0,0.0 z "
         id="path837" />
    </marker>
  </defs>
  <sodipodi:namedview
     id="base"
     pagecolor="#ffffff"
     bordercolor="#666666"
     borderopacity="1.0"
     inkscape:pageopacity="0.0"
     inkscape:pageshadow="2"
     inkscape:zoom="1"
     inkscape:cx="378.38031"
     inkscape:cy="313.478"
     inkscape:document-units="mm"
     inkscape:current-layer="layer1"
     inkscape:document-rotation="0"
     showgrid="false"
     inkscape:window-width="2560"
     inkscape:window-height="1283"
     inkscape:window-x="0"
     inkscape:window-y="62"
     inkscape:window-maximized="1" />
  <metadata
     id="metadata5">
    <rdf:RDF>
      <cc:Work
         rdf:about="">
        <dc:format>image/svg+xml</dc:format>
        <dc:type
           rdf:resource="http://purl.org/dc/dcmitype/StillImage" />
        <dc:title></dc:title>
      </cc:Work>
    </rdf:RDF>
  </metadata>
  <g
     inkscape:label="图层 1"
     inkscape:groupmode="layer"
     id="layer1">
    <g
       id="g1152">
      <path
         style="fill:none;stroke:#000000;stroke-width:0.265;stroke-linecap:butt;stroke-linejoin:miter;stroke-opacity:1;stroke-miterlimit:4;stroke-dasharray:none;marker-start:url(#Arrow1Lstart);marker-end:url(#Arrow1Lend)"
         d="M 53.962807,27.580934 V 114.64001 H 156.86219"
         id="path12" />
    </g>
    <g
       id="g1180"
       inkscape:transform-center-x="-38.241469"
       inkscape:transform-center-y="-42.121416"
       transform="rotate(-15,54.125775,114.76144)"
       style="stroke:#000000">
      <path
         style="fill:none;stroke:#000000;stroke-width:0.265;stroke-linecap:butt;stroke-linejoin:miter;stroke-miterlimit:4;stroke-dasharray:none;stroke-opacity:1;marker-start:url(#marker1184);marker-end:url(#marker1194)"
         d="M 53.962807,27.580934 V 114.64001 H 156.86219"
         id="path1178" />
    </g>
    <circle
       style="fill:none;stroke:#000000;stroke-width:0.265;stroke-miterlimit:4;stroke-dasharray:none;stroke-opacity:1"
       id="path1302"
       sodipodi:type="arc"
       sodipodi:cx="53.962807"
       sodipodi:cy="114.64001"
       sodipodi:rx="41.250481"
       sodipodi:ry="41.250481"
       sodipodi:start="6.0213859"
       sodipodi:end="0"
       sodipodi:arc-type="slice"
       d="m 93.807711,103.9636 a 41.250481,41.250481 0 0 1 1.405576,10.67641 h -41.25048 z" />
    <text
       xml:space="preserve"
       style="font-size:6.35px;line-height:1.25;font-family:sans-serif;letter-spacing:0px;word-spacing:0px;stroke-width:0.264583"
       x="57.452599"
       y="22.645662"
       id="text1324"><tspan
         sodipodi:role="line"
         id="tspan1322"
         x="57.452599"
         y="22.645662"
         style="stroke-width:0.264583">i</tspan></text>
    <text
       xml:space="preserve"
       style="font-size:6.35px;line-height:1.25;font-family:sans-serif;letter-spacing:0px;word-spacing:0px;stroke-width:0.264583"
       x="159.34198"
       y="124.82362"
       id="text1328"><tspan
         sodipodi:role="line"
         id="tspan1326"
         x="159.34198"
         y="124.82362"
         style="stroke-width:0.264583">j</tspan></text>
    <text
       xml:space="preserve"
       style="font-size:6.35px;line-height:1.25;font-family:sans-serif;letter-spacing:0px;word-spacing:0px;stroke-width:0.264583;fill:#008000;"
       x="138.61505"
       y="89.851959"
       id="text1332"><tspan
         sodipodi:role="line"
         id="tspan1330"
         x="138.61505"
         y="89.851959"
         style="stroke-width:0.264583;fill:#008000;">r</tspan></text>
    <text
       xml:space="preserve"
       id="text1382"
       style="font-family:sans-serif;font-size:6.35px;line-height:1.25;letter-spacing:0px;word-spacing:0px;white-space:pre;shape-inside:url(#rect1384);" />
    <text
       xml:space="preserve"
       id="text1388"
       style="font-family:sans-serif;font-size:6.35px;line-height:1.25;letter-spacing:0px;word-spacing:0px;white-space:pre;shape-inside:url(#rect1390);" />
    <g
       transform="matrix(1.2717725,0,0,1.3300153,117.30666,100.47236)"
       ns1:version="1.3.0"
       ns1:texconverter="pdflatex"
       ns1:pdfconverter="inkscape"
       ns1:text="$\\phi$"
       ns1:preamble="/usr/share/inkscape/extensions/textext/default_packages.tex"
       ns1:scale="1.0"
       ns1:alignment="middle center"
       ns1:jacobian_sqrt="0.352778"
       id="g1431"
       style="stroke-width:0.271249;stroke:#ff0000;fill:#ff0000">
      <defs
         id="id-e7463de9-6da3-4fd0-89ab-a9164c57f5a8">
        <g
           id="id-e396dabd-65cb-4048-8bce-549ac70e64cf">
          <symbol
             overflow="visible"
             id="id-6ff3e77c-8c3e-4c31-839b-296eea556023">
            <path
               style="stroke:none;stroke-width:0"
               d=""
               id="id-00c97920-6d93-4146-8ebd-f9deb580e38d" />
          </symbol>
          <symbol
             overflow="visible"
             id="id-89bde6a6-2103-4e66-a442-daf5af58bdbb">
            <path
               style="stroke:none;stroke-width:0"
               d="m 4.359375,-6.671875 c 0,-0.03125 0.03125,-0.140625 0.03125,-0.140625 0,-0.015625 0,-0.109375 -0.125,-0.109375 -0.09375,0 -0.109375,0.03125 -0.15625,0.203125 L 3.53125,-4.421875 c -1.578125,0.0625 -3.046875,1.375 -3.046875,2.734375 0,0.953125 0.703125,1.734375 1.921875,1.8125 C 2.328125,0.421875 2.25,0.75 2.171875,1.0625 c -0.125,0.46875 -0.21875,0.84375 -0.21875,0.875 0,0.09375 0.078125,0.109375 0.125,0.109375 C 2.125,2.046875 2.140625,2.03125 2.171875,2 2.1875,1.984375 2.25,1.75 2.28125,1.609375 L 2.65625,0.125 c 1.609375,-0.0625 3.0625,-1.40625 3.0625,-2.734375 0,-0.796875 -0.53125,-1.703125 -1.921875,-1.8125 z m -1.90625,6.578125 c -0.59375,-0.03125 -1.3125,-0.390625 -1.3125,-1.375 0,-1.203125 0.859375,-2.59375 2.34375,-2.734375 z m 1.28125,-4.109375 c 0.765625,0.046875 1.328125,0.5 1.328125,1.375 0,1.1875 -0.859375,2.609375 -2.34375,2.734375 z m 0,0"
               id="id-cb1c2543-d4d2-474f-b23d-427eb929345f" />
          </symbol>
        </g>
      </defs>
      <g
         id="id-8f421dd4-1c79-4f0f-ac45-893ae13a6791"
         transform="translate(-149.196,-127.843)"
         style="stroke-width:0.271249;stroke:#ff0000;fill:#ff0000">
        <g
           style="fill:#ff0000;fill-opacity:1;stroke-width:0.271249;stroke:#ff0000"
           id="id-9a3983e5-c7a1-449a-92ee-935f4b06d50a">
          <g
             transform="translate(148.712,134.765)"
             id="g1427"
             style="stroke-width:0.271249;stroke:#ff0000;fill:#ff0000">
            <path
               style="stroke:#ff0000;stroke-width:0;fill:#ff0000"
               d="m 4.359375,-6.671875 c 0,-0.03125 0.03125,-0.140625 0.03125,-0.140625 0,-0.015625 0,-0.109375 -0.125,-0.109375 -0.09375,0 -0.109375,0.03125 -0.15625,0.203125 L 3.53125,-4.421875 c -1.578125,0.0625 -3.046875,1.375 -3.046875,2.734375 0,0.953125 0.703125,1.734375 1.921875,1.8125 C 2.328125,0.421875 2.25,0.75 2.171875,1.0625 c -0.125,0.46875 -0.21875,0.84375 -0.21875,0.875 0,0.09375 0.078125,0.109375 0.125,0.109375 C 2.125,2.046875 2.140625,2.03125 2.171875,2 2.1875,1.984375 2.25,1.75 2.28125,1.609375 L 2.65625,0.125 c 1.609375,-0.0625 3.0625,-1.40625 3.0625,-2.734375 0,-0.796875 -0.53125,-1.703125 -1.921875,-1.8125 z m -1.90625,6.578125 c -0.59375,-0.03125 -1.3125,-0.390625 -1.3125,-1.375 0,-1.203125 0.859375,-2.59375 2.34375,-2.734375 z m 1.28125,-4.109375 c 0.765625,0.046875 1.328125,0.5 1.328125,1.375 0,1.1875 -0.859375,2.609375 -2.34375,2.734375 z m 0,0"
               id="id-d9d4373e-4ab0-481b-a1d2-c6f6fe6fc51b" />
          </g>
        </g>
      </g>
    </g>
    <g
       transform="matrix(0.71629867,0,0,0.71629867,19.753039,32.111436)"
       ns1:version="1.3.0"
       ns1:texconverter="pdflatex"
       ns1:pdfconverter="inkscape"
       ns1:text="$\\phi$"
       ns1:preamble="/usr/share/inkscape/extensions/textext/default_packages.tex"
       ns1:scale="1.0"
       ns1:alignment="middle center"
       ns1:jacobian_sqrt="0.352778"
       id="g1468"
       style="stroke-width:0.492502;stroke:#008000;fill:#008000">
      <defs
         id="defs1458">
        <g
           id="g1456">
          <symbol
             overflow="visible"
             id="symbol1450">
            <path
               style="stroke:none;stroke-width:0"
               d=""
               id="path1448" />
          </symbol>
          <symbol
             overflow="visible"
             id="symbol1454">
            <path
               style="stroke:none;stroke-width:0"
               d="m 4.359375,-6.671875 c 0,-0.03125 0.03125,-0.140625 0.03125,-0.140625 0,-0.015625 0,-0.109375 -0.125,-0.109375 -0.09375,0 -0.109375,0.03125 -0.15625,0.203125 L 3.53125,-4.421875 c -1.578125,0.0625 -3.046875,1.375 -3.046875,2.734375 0,0.953125 0.703125,1.734375 1.921875,1.8125 C 2.328125,0.421875 2.25,0.75 2.171875,1.0625 c -0.125,0.46875 -0.21875,0.84375 -0.21875,0.875 0,0.09375 0.078125,0.109375 0.125,0.109375 C 2.125,2.046875 2.140625,2.03125 2.171875,2 2.1875,1.984375 2.25,1.75 2.28125,1.609375 L 2.65625,0.125 c 1.609375,-0.0625 3.0625,-1.40625 3.0625,-2.734375 0,-0.796875 -0.53125,-1.703125 -1.921875,-1.8125 z m -1.90625,6.578125 c -0.59375,-0.03125 -1.3125,-0.390625 -1.3125,-1.375 0,-1.203125 0.859375,-2.59375 2.34375,-2.734375 z m 1.28125,-4.109375 c 0.765625,0.046875 1.328125,0.5 1.328125,1.375 0,1.1875 -0.859375,2.609375 -2.34375,2.734375 z m 0,0"
               id="path1452" />
          </symbol>
        </g>
      </defs>
      <g
         id="g1466"
         transform="translate(-149.196,-127.843)"
         style="stroke-width:0.492502;stroke:#008000;fill:#008000">
        <g
           style="fill:#008000;fill-opacity:1;stroke-width:0.492502;stroke:#008000"
           id="g1464">
          <g
             transform="translate(148.712,134.765)"
             id="g1462"
             style="stroke-width:0.492502;stroke:#008000;fill:#008000">
            <path
               style="stroke:#008000;stroke-width:0;fill:#008000"
               d="m 4.359375,-6.671875 c 0,-0.03125 0.03125,-0.140625 0.03125,-0.140625 0,-0.015625 0,-0.109375 -0.125,-0.109375 -0.09375,0 -0.109375,0.03125 -0.15625,0.203125 L 3.53125,-4.421875 c -1.578125,0.0625 -3.046875,1.375 -3.046875,2.734375 0,0.953125 0.703125,1.734375 1.921875,1.8125 C 2.328125,0.421875 2.25,0.75 2.171875,1.0625 c -0.125,0.46875 -0.21875,0.84375 -0.21875,0.875 0,0.09375 0.078125,0.109375 0.125,0.109375 C 2.125,2.046875 2.140625,2.03125 2.171875,2 2.1875,1.984375 2.25,1.75 2.28125,1.609375 L 2.65625,0.125 c 1.609375,-0.0625 3.0625,-1.40625 3.0625,-2.734375 0,-0.796875 -0.53125,-1.703125 -1.921875,-1.8125 z m -1.90625,6.578125 c -0.59375,-0.03125 -1.3125,-0.390625 -1.3125,-1.375 0,-1.203125 0.859375,-2.59375 2.34375,-2.734375 z m 1.28125,-4.109375 c 0.765625,0.046875 1.328125,0.5 1.328125,1.375 0,1.1875 -0.859375,2.609375 -2.34375,2.734375 z m 0,0"
               id="path1460" />
          </g>
        </g>
      </g>
    </g>
  </g>
</svg>
