<?xml version="1.0" encoding="UTF-8" standalone="no"?>
<!-- Created with Inkscape (http://www.inkscape.org/) -->

<svg
   width="144.8159mm"
   height="143.66129mm"
   viewBox="0 0 144.8159 143.66129"
   version="1.1"
   id="svg8"
   inkscape:version="1.1 (c4e8f9ed74, 2021-05-24)"
   sodipodi:docname="平面方程的点法式.svg"
   xmlns:inkscape="http://www.inkscape.org/namespaces/inkscape"
   xmlns:sodipodi="http://sodipodi.sourceforge.net/DTD/sodipodi-0.dtd"
   xmlns="http://www.w3.org/2000/svg"
   xmlns:svg="http://www.w3.org/2000/svg"
   xmlns:rdf="http://www.w3.org/1999/02/22-rdf-syntax-ns#"
   xmlns:cc="http://creativecommons.org/ns#"
   xmlns:dc="http://purl.org/dc/elements/1.1/">
  <defs
     id="defs2">
    <marker
       style="overflow:visible"
       id="marker9762"
       refX="0"
       refY="0"
       orient="auto"
       inkscape:stockid="Arrow1Lend"
       inkscape:isstock="true">
      <path
         transform="matrix(-0.8,0,0,-0.8,-10,0)"
         style="fill:context-stroke;fill-rule:evenodd;stroke:context-stroke;stroke-width:1pt"
         d="M 0,0 5,-5 -12.5,0 5,5 Z"
         id="path9760" />
    </marker>
    <marker
       style="overflow:visible"
       id="Arrow1Lend"
       refX="0"
       refY="0"
       orient="auto"
       inkscape:stockid="Arrow1Lend"
       inkscape:isstock="true">
      <path
         transform="matrix(-0.8,0,0,-0.8,-10,0)"
         style="fill:context-stroke;fill-rule:evenodd;stroke:context-stroke;stroke-width:1pt"
         d="M 0,0 5,-5 -12.5,0 5,5 Z"
         id="path1008" />
    </marker>
    <defs
       id="id-f59fd7cc-f1fa-4d0a-b5b1-f9a2ae96f6dd">
      <g
         id="id-07d6a795-46fc-4738-a72c-100879091f74">
        <symbol
           overflow="visible"
           id="id-646919cc-2b3b-4b78-8d7a-2cbfd1517c1a">
          <path
             style="stroke:none;stroke-width:0"
             d=""
             id="id-97b64d59-26c6-4132-a9e4-37f5827c909d" />
        </symbol>
        <symbol
           overflow="visible"
           id="id-c86b1bc1-bf1b-47f6-9dae-5b1b640fc71b">
          <path
             style="stroke:none;stroke-width:0"
             d="m 5.359375,-5.9375 c -0.140625,0.140625 -0.46875,0.421875 -0.46875,0.59375 0,0.09375 0.09375,0.203125 0.1875,0.203125 0.09375,0 0.140625,-0.078125 0.203125,-0.140625 C 5.390625,-5.421875 5.625,-5.703125 6.0625,-5.921875 6.125,-5.96875 6.234375,-6.015625 6.234375,-6.125 6.234375,-6.234375 6.15625,-6.28125 6.09375,-6.328125 5.875,-6.484375 5.765625,-6.65625 5.6875,-6.890625 5.65625,-6.984375 5.625,-7.125 5.484375,-7.125 c -0.140625,0 -0.203125,0.140625 -0.203125,0.21875 0,0.046875 0.078125,0.359375 0.234375,0.578125 H 2.15625 c -0.15625,0 -0.34375,0 -0.34375,0.203125 0,0.1875 0.1875,0.1875 0.34375,0.1875 z m 0,0"
             id="id-e66fb745-09c9-4fd3-a23e-787137cabd64" />
        </symbol>
        <symbol
           overflow="visible"
           id="id-b3b5397d-63ac-4566-9c1b-beb900f9a73e">
          <path
             style="stroke:none;stroke-width:0"
             d=""
             id="id-12f566ca-a3ec-4728-b045-abb2163f7a5b" />
        </symbol>
        <symbol
           overflow="visible"
           id="id-138a99e7-5a82-4eaa-b5c9-06f022294e0c">
          <path
             style="stroke:none;stroke-width:0"
             d="m 1.140625,-3.546875 v 3.078125 h -0.6875 V 0 c 0.28125,-0.015625 0.875,-0.03125 1.25,-0.03125 0.390625,0 0.984375,0.015625 1.25,0.03125 v -0.46875 h -0.6875 v -2.078125 c 0,-1.09375 0.859375,-1.578125 1.5,-1.578125 0.328125,0 0.546875,0.203125 0.546875,0.96875 v 2.6875 H 3.625 V 0 c 0.265625,-0.015625 0.875,-0.03125 1.25,-0.03125 0.390625,0 0.984375,0.015625 1.25,0.03125 V -0.46875 H 5.4375 v -2.578125 c 0,-1.046875 -0.53125,-1.4375 -1.53125,-1.4375 -0.953125,0 -1.484375,0.5625 -1.75,1.078125 V -4.484375 L 0.453125,-4.40625 v 0.46875 c 0.609375,0 0.6875,0 0.6875,0.390625 z m 0,0"
             id="id-2b4e121b-6aed-47ab-83c9-9ba67e749540" />
        </symbol>
      </g>
    </defs>
    <defs
       id="id-4ec739af-28af-433c-8c46-b29a583e6863">
      <g
         id="id-89eef9ea-4c55-4c8a-a862-5c241235145a">
        <symbol
           overflow="visible"
           id="id-8ea9d9e6-b4e4-464a-ac60-ada7a7d30af0">
          <path
             style="stroke:none;stroke-width:0"
             d=""
             id="id-37607ec8-20b3-4e00-9d7e-283b772cad0f" />
        </symbol>
        <symbol
           overflow="visible"
           id="id-abaa78c0-f22c-49c0-8b67-4abbc9cf2a4b">
          <path
             style="stroke:none;stroke-width:0"
             d="m 5.359375,-5.9375 c -0.140625,0.140625 -0.46875,0.421875 -0.46875,0.59375 0,0.09375 0.09375,0.203125 0.1875,0.203125 0.09375,0 0.140625,-0.078125 0.203125,-0.140625 C 5.390625,-5.421875 5.625,-5.703125 6.0625,-5.921875 6.125,-5.96875 6.234375,-6.015625 6.234375,-6.125 6.234375,-6.234375 6.15625,-6.28125 6.09375,-6.328125 5.875,-6.484375 5.765625,-6.65625 5.6875,-6.890625 5.65625,-6.984375 5.625,-7.125 5.484375,-7.125 c -0.140625,0 -0.203125,0.140625 -0.203125,0.21875 0,0.046875 0.078125,0.359375 0.234375,0.578125 H 2.15625 c -0.15625,0 -0.34375,0 -0.34375,0.203125 0,0.1875 0.1875,0.1875 0.34375,0.1875 z m 0,0"
             id="id-ba4000db-e4d3-44b6-912b-1bda9574bf1c" />
        </symbol>
        <symbol
           overflow="visible"
           id="id-24cd9955-c532-4396-bbc9-587ca6badad9">
          <path
             style="stroke:none;stroke-width:0"
             d=""
             id="id-95993ae4-716f-4899-89d0-e46bfc6ea7b4" />
        </symbol>
        <symbol
           overflow="visible"
           id="id-b31808d4-c73e-4097-8b8c-a635bb57cba4">
          <path
             style="stroke:none;stroke-width:0"
             d="M 2.234375,-6.921875 0.46875,-6.84375 V -6.375 c 0.625,0 0.6875,0 0.6875,0.390625 V -0.46875 H 0.46875 V 0 c 0.3125,-0.015625 0.796875,-0.03125 1.21875,-0.03125 0.4375,0 0.890625,0.015625 1.234375,0.03125 v -0.46875 h -0.6875 z m 0,0"
             id="id-0751843b-0bfb-429e-9c47-8482f984841c" />
        </symbol>
      </g>
    </defs>
  </defs>
  <sodipodi:namedview
     id="base"
     pagecolor="#ffffff"
     bordercolor="#666666"
     borderopacity="1.0"
     inkscape:pageopacity="0.0"
     inkscape:pageshadow="2"
     inkscape:zoom="1.4062571"
     inkscape:cx="-84.977349"
     inkscape:cy="368.3537"
     inkscape:document-units="mm"
     inkscape:current-layer="layer1"
     showgrid="false"
     showborder="true"
     width="200mm"
     showguides="true"
     inkscape:guide-bbox="true"
     inkscape:window-width="2560"
     inkscape:window-height="1341"
     inkscape:window-x="0"
     inkscape:window-y="0"
     inkscape:window-maximized="1"
     inkscape:pagecheckerboard="0"
     inkscape:snap-bbox="true"
     inkscape:snap-bbox-edge-midpoints="false"
     inkscape:snap-bbox-midpoints="true"
     inkscape:snap-object-midpoints="true"
     fit-margin-top="0"
     fit-margin-left="0"
     fit-margin-right="0"
     fit-margin-bottom="0">
    <inkscape:grid
       type="xygrid"
       id="grid815"
       units="mm"
       spacingx="10"
       spacingy="10"
       empspacing="4"
       dotted="false"
       originx="-59.264067"
       originy="43.684098" />
  </sodipodi:namedview>
  <metadata
     id="metadata5">
    <rdf:RDF>
      <cc:Work
         rdf:about="">
        <dc:format>image/svg+xml</dc:format>
        <dc:type
           rdf:resource="http://purl.org/dc/dcmitype/StillImage" />
      </cc:Work>
    </rdf:RDF>
  </metadata>
  <g
     inkscape:label="Layer 1"
     inkscape:groupmode="layer"
     id="layer1"
     transform="translate(-59.264069,-133.3159)">
    <text
       xml:space="preserve"
       style="font-size:6.35px;line-height:1.25;font-family:sans-serif;letter-spacing:0px;word-spacing:0px;stroke-width:0.264583"
       x="131.62564"
       y="245.79134"
       id="text2735"><tspan
         sodipodi:role="line"
         id="tspan2733"
         style="stroke-width:0.264583"
         x="131.62564"
         y="245.79134" /></text>
    <g
       id="g923"
       transform="matrix(1.5936547,0,0,1.5937042,-34.708578,-164.31096)"
       style="stroke-width:0.627478">
      <rect
         style="opacity:0.363355;fill:#808000;stroke:#999999;stroke-width:0.197734;stroke-dasharray:0.197734, 0.593201"
         id="rect845"
         width="65.688789"
         height="35.545967"
         x="305.25772"
         y="313.13828"
         transform="matrix(0.99999914,-0.00131382,-0.70610699,0.70810516,0,0)"
         ry="0" />
      <path
         style="fill:none;stroke:#000000;stroke-width:0.166282;stroke-linecap:butt;stroke-linejoin:miter;stroke-miterlimit:4;stroke-dasharray:none;stroke-opacity:1;marker-end:url(#Arrow1Lend)"
         d="m 83.204623,276.85803 15.027312,-30.4122 m 26.879865,-54.76809 -20.66873,42.19802 -6.211135,12.57007"
         id="path1194"
         sodipodi:nodetypes="cccc" />
      <g
         id="id-fca8e6a1-3439-4921-bb2c-c62f9d94a6b9"
         transform="matrix(0.87279125,0,0,0.87279125,-2.0271168,75.469873)"
         style="stroke-width:0.253624">
        <g
           style="fill:#000000;fill-opacity:1;stroke-width:0.253624"
           id="id-ccdc4a7f-c770-4344-b454-31b06fe8c306">
          <g
             transform="translate(148.638,134.626)"
             id="g876"
             style="stroke-width:0.253624">
            <path
               style="stroke:none;stroke-width:0"
               d="m 5.359375,-5.9375 c -0.140625,0.140625 -0.46875,0.421875 -0.46875,0.59375 0,0.09375 0.09375,0.203125 0.1875,0.203125 0.09375,0 0.140625,-0.078125 0.203125,-0.140625 C 5.390625,-5.421875 5.625,-5.703125 6.0625,-5.921875 6.125,-5.96875 6.234375,-6.015625 6.234375,-6.125 6.234375,-6.234375 6.15625,-6.28125 6.09375,-6.328125 5.875,-6.484375 5.765625,-6.65625 5.6875,-6.890625 5.65625,-6.984375 5.625,-7.125 5.484375,-7.125 c -0.140625,0 -0.203125,0.140625 -0.203125,0.21875 0,0.046875 0.078125,0.359375 0.234375,0.578125 H 2.15625 c -0.15625,0 -0.34375,0 -0.34375,0.203125 0,0.1875 0.1875,0.1875 0.34375,0.1875 z m 0,0"
               id="id-4f72614f-8d19-4e13-b4ad-753444106216" />
          </g>
        </g>
        <g
           style="fill:#000000;fill-opacity:1;stroke-width:0.253624"
           id="id-211ea745-aef6-413f-96c3-bd9666623610">
          <g
             transform="translate(148.712,134.765)"
             id="g880"
             style="stroke-width:0.253624">
            <path
               style="stroke:none;stroke-width:0"
               d="m 1.140625,-3.546875 v 3.078125 h -0.6875 V 0 c 0.28125,-0.015625 0.875,-0.03125 1.25,-0.03125 0.390625,0 0.984375,0.015625 1.25,0.03125 v -0.46875 h -0.6875 v -2.078125 c 0,-1.09375 0.859375,-1.578125 1.5,-1.578125 0.328125,0 0.546875,0.203125 0.546875,0.96875 v 2.6875 H 3.625 V 0 c 0.265625,-0.015625 0.875,-0.03125 1.25,-0.03125 0.390625,0 0.984375,0.015625 1.25,0.03125 V -0.46875 H 5.4375 v -2.578125 c 0,-1.046875 -0.53125,-1.4375 -1.53125,-1.4375 -0.953125,0 -1.484375,0.5625 -1.75,1.078125 V -4.484375 L 0.453125,-4.40625 v 0.46875 c 0.609375,0 0.6875,0 0.6875,0.390625 z m 0,0"
               id="id-4603ffb7-ac7e-44b1-9a6a-a98e3bd33358" />
          </g>
        </g>
      </g>
      <path
         style="fill:none;stroke:#000000;stroke-width:0.16602px;stroke-linecap:butt;stroke-linejoin:miter;stroke-opacity:1;marker-end:url(#marker9762)"
         d="m 110.64009,234.05996 h 20.66439"
         id="path9758" />
      <text
         xml:space="preserve"
         style="font-size:6.35px;line-height:1.25;font-family:sans-serif;letter-spacing:0px;word-spacing:0px;stroke-width:0.16602"
         x="134.59735"
         y="247.56172"
         id="text10732"><tspan
           sodipodi:role="line"
           id="tspan10730"
           style="stroke-width:0.16602"
           x="134.59735"
           y="247.56172">p</tspan></text>
      <g
         id="id-222fe072-9ca2-4846-bf21-d39bf840d703"
         transform="matrix(0.66481992,0,0,0.66481992,29.383802,141.03938)"
         style="stroke-width:0.332963">
        <g
           style="fill:#000000;fill-opacity:1;stroke-width:0.332963"
           id="id-a3cdc10c-9c8e-4960-ac2c-637bfb6321d9">
          <g
             transform="translate(147.047,132.136)"
             id="g14333"
             style="stroke-width:0.332963">
            <path
               style="stroke:none;stroke-width:0"
               d="m 5.359375,-5.9375 c -0.140625,0.140625 -0.46875,0.421875 -0.46875,0.59375 0,0.09375 0.09375,0.203125 0.1875,0.203125 0.09375,0 0.140625,-0.078125 0.203125,-0.140625 C 5.390625,-5.421875 5.625,-5.703125 6.0625,-5.921875 6.125,-5.96875 6.234375,-6.015625 6.234375,-6.125 6.234375,-6.234375 6.15625,-6.28125 6.09375,-6.328125 5.875,-6.484375 5.765625,-6.65625 5.6875,-6.890625 5.65625,-6.984375 5.625,-7.125 5.484375,-7.125 c -0.140625,0 -0.203125,0.140625 -0.203125,0.21875 0,0.046875 0.078125,0.359375 0.234375,0.578125 H 2.15625 c -0.15625,0 -0.34375,0 -0.34375,0.203125 0,0.1875 0.1875,0.1875 0.34375,0.1875 z m 0,0"
               id="id-e5998618-c06c-45a8-bff5-7247ee8f3f60" />
          </g>
        </g>
        <g
           style="fill:#000000;fill-opacity:1;stroke-width:0.332963"
           id="id-a415b3eb-361f-468a-bef7-66c2c8c56fa9">
          <g
             transform="translate(148.712,134.765)"
             id="g14337"
             style="stroke-width:0.332963">
            <path
               style="stroke:none;stroke-width:0"
               d="M 2.234375,-6.921875 0.46875,-6.84375 V -6.375 c 0.625,0 0.6875,0 0.6875,0.390625 V -0.46875 H 0.46875 V 0 c 0.3125,-0.015625 0.796875,-0.03125 1.21875,-0.03125 0.4375,0 0.890625,0.015625 1.234375,0.03125 v -0.46875 h -0.6875 z m 0,0"
               id="id-f91dc8f7-002e-4d0d-8ec5-64529e7e1a04" />
          </g>
        </g>
      </g>
    </g>
  </g>
</svg>
